<?xml version="1.0" encoding="utf-8"?>
<!-- Generator: Adobe Illustrator 23.0.3, SVG Export Plug-In . SVG Version: 6.00 Build 0)  -->
<svg version="1.1" id="Layer_1" xmlns="http://www.w3.org/2000/svg" xmlns:xlink="http://www.w3.org/1999/xlink" x="0px" y="0px"
	 viewBox="0 0 386.3 351.7" style="enable-background:new 0 0 386.3 351.7;" xml:space="preserve">
<style type="text/css">
	.st0{fill:#FFFFFF;}
	.st1{fill:#2B2627;}
</style>
<g>
	<path class="st0" d="M249.4,316.8c12.4-18.2,14.8-43.1,15.6-53c1.1-12.7,27.4-24.9,27.4-24.9s-9.4-16-32.1-18.5
		c-17.1-22-34.7-12.9-34.7-12.9s13.1,16.9,5.1,46.3c-8,29.4-29.2,26.5-29.2,26.5c-7.6-0.2-8-18.9-8-18.9c9.9-17.7,0.2-31,0.2-31
		c37.9-27.6,11.6-63.9,3.8-68.1c-0.2-3.6,0.7-8.6,0.4-15.7c-0.3-7.1-5.6-18.3-5.6-18.3s3,0.4,6.8-6.5c3.8-6.9-3.3-12.2-3.3-12.2
		s6.7-15.8-6-26.5c-9.6-8.1-20.6-1.8-25.4,1.8c-1.8,1.4-2.7,3.5-3.6,5.6c-1.1,2.7-0.4,11.3-0.4,11.3s-3.3,5.8-3.3,7.3
		s3.3,1.8,3.3,1.8s0.9,6.2,1.1,9.1c0.2,2.9,8.5,2.9,8.5,2.9v7.8c-7.8-2.4-23.3-5.7-23.3-5.7l5.6-46.2l9.1-12v5.6h6.4l0.1-6l114,0.7
		l-11.1-11.4l-102.4-1.1l0.1-5.8h-7.1l-0.1,5.9l-17.9,1.9l-3.1,16.7c-3.3,10.9-11.5,48.4-12,55.3c-0.5,6.9,26.1,19.1,26.1,19.1
		c-6.7,5.2-12.6,9.9-14.3,12c-0.9,1.3,1.8,7,1.8,7c-27.6,25-6.2,58.1,2.2,61.9c2.6,5.4,3.6,8,3.6,15.8c-13.6,32.6-17.8,57.5-19,72.6
		h-67c-2.3-0.1-4.1-0.1-5.5-0.3c-2.5-0.2-4.6-0.7-6.4-1.5c-1.8-0.8-3.5-1.9-4.9-3.4c-2.1-2.1-3.5-5-4.3-8.6c-0.7-3.3-1-7.9-1-14
		v-81.5c0-18.9-17.8-32.4-17.8-32.4s17.8-8.9,17.8-31V62.7c0-6.1,0.3-10.8,1-14c0.8-3.6,2.2-6.5,4.3-8.6c1.4-1.5,3.1-2.6,4.9-3.4
		c1.8-0.8,3.9-1.3,6.4-1.5c2.3-0.2,5.4-0.3,9.4-0.3h255.1c3.9,0,7.1,0.1,9.4,0.3c2.5,0.2,4.6,0.7,6.4,1.5c1.8,0.8,3.5,1.9,4.9,3.4
		c2.1,2.1,3.5,5,4.3,8.6c0.7,3.2,1,7.9,1,14v81.5c0,22,17.8,31,17.8,31s-17.8,13.5-17.8,32.4V289c0,6.2-0.3,10.8-1,14
		c-0.8,3.6-2.2,6.5-4.3,8.6c-1.4,1.4-3.1,2.6-4.9,3.4c-1.8,0.8-3.9,1.3-6.4,1.5c-1.4,0.1-3.2,0.2-5.5,0.3L249.4,316.8z"/>
</g>
</svg>
