<?xml version="1.0" encoding="utf-8"?>
<!-- Generator: Adobe Illustrator 23.0.3, SVG Export Plug-In . SVG Version: 6.00 Build 0)  -->
<svg version="1.1" id="Layer_1" xmlns="http://www.w3.org/2000/svg" xmlns:xlink="http://www.w3.org/1999/xlink" x="0px" y="0px"
	 viewBox="0 0 770.1 628.7" style="enable-background:new 0 0 770.1 628.7;" xml:space="preserve">
<style type="text/css">
	.st0{fill:#FFFFFF;}
	.st1{fill:#2B2627;}
</style>
<g>
	<g>
		<path class="st0" d="M38.7,491.1l-5.2-78.5H53l2.8,59.8h1.3l9-59.8h14.4l-6.6,19.3h-1l-7.9,59.2H38.7z M81.7,491.1l-7.9-59.2h-1.2
			l-6.4-19.3h14.4l9,59.8h1.3l4.8-59.8h19l-7.4,78.5H81.7z"/>
		<path class="st0" d="M155.1,492.6c-9.7,0-17.3-3.5-22.7-10.5c-5.4-7-8.1-17.1-8.1-30.1c0-13,2.7-23,8.1-30.1
			c5.4-7.1,13-10.7,22.8-10.7c6,0,10.5,1.3,13.6,3.9c3.1,2.6,5.1,6.5,6,11.8h5.8l-4.6,25.1c0-7.6-1.3-13.2-3.8-16.7
			c-2.5-3.5-6.4-5.3-11.5-5.3c-4.9,0-8.7,1.9-11.3,5.7c-2.7,3.8-4,9.2-4,16.2c0,7.2,1.3,12.6,3.9,16.3c2.6,3.7,6.4,5.5,11.4,5.5
			c5.7,0,9.7-1.7,12-5.2c2.2-3.5,3.4-9,3.4-16.6l5.3,25h-7c-0.8,5.2-2.8,9.2-6.1,11.8C165,491.3,160.6,492.6,155.1,492.6z
			 M132,526.5l-0.7-17.5l25.2-0.7c6.9-0.2,11.9-2.1,15-5.7c3.1-3.6,4.7-9,4.7-16v-57.3l1.5-16.6h18.6v71.5c0,14-3.3,24.3-9.8,30.9
			c-6.6,6.6-17,10.2-31.4,10.7L132,526.5z"/>
		<path class="st0" d="M244,492.6c-9.7,0-17.3-3.5-22.7-10.5c-5.4-7-8.1-17.1-8.1-30.1c0-13,2.7-23,8.1-30.1
			c5.4-7.1,13-10.7,22.8-10.7c5.7,0,10.1,1.3,13.1,3.9c3,2.6,4.9,6.5,5.8,11.8h6.5l-4.6,25.1c0-7.6-1.3-13.2-3.8-16.7
			c-2.5-3.5-6.4-5.3-11.5-5.3c-4.9,0-8.7,1.9-11.3,5.7c-2.7,3.8-4,9.2-4,16.2c0,7.2,1.3,12.6,3.9,16.3c2.6,3.7,6.4,5.5,11.4,5.5
			c5.7,0,9.7-1.7,12-5.2c2.2-3.5,3.4-9,3.4-16.6l5.3,25h-7c-0.8,5.2-2.8,9.2-6.1,11.8C253.9,491.3,249.5,492.6,244,492.6z
			 M267.8,491.8l-2.9-15.6V380H285v111.1L267.8,491.8z"/>
		<path class="st0" d="M340.6,492.6c-11.3,0-20.1-3.6-26.3-10.7c-6.2-7.1-9.3-17.1-9.3-30.1c0-13,3.1-23,9.3-30.1
			c6.2-7.1,15-10.6,26.3-10.6c11.3,0,20.1,3.5,26.3,10.6c6.2,7.1,9.3,17.1,9.3,30.1c0,12.9-3.1,23-9.3,30.1
			C360.7,489,351.9,492.6,340.6,492.6z M340.7,473.5c4.5,0,8.1-1.9,10.6-5.7c2.5-3.8,3.7-9.1,3.7-16c0-7-1.2-12.3-3.7-16.1
			c-2.5-3.8-6-5.6-10.6-5.6c-4.5,0-8.1,1.9-10.6,5.6c-2.5,3.8-3.8,9.1-3.8,16.1c0,6.9,1.3,12.3,3.8,16
			C332.6,471.6,336.1,473.5,340.7,473.5z"/>
		<path class="st0" d="M389,431v-18.4h73.6V431H389z M407.8,452.8v-63.9h20v63.9H407.8z M446.2,492.6c-13.5,0-23.3-2.7-29.3-8.1
			c-6-5.4-9-14.1-9-26.1v-10.2h20v8.3c0,6,1.5,10.3,4.6,13c3.1,2.7,8.2,4.1,15.2,4.1c2.3,0,4.7-0.1,7.3-0.4c2.6-0.3,5.5-0.6,8.8-1.1
			l1.8,18.7c-3.3,0.6-6.4,1-9.5,1.3C453,492.4,449.7,492.6,446.2,492.6z"/>
		<path class="st0" d="M485.1,491.1v-78.5H503l2.1,16.6v61.9H485.1z M531.6,491.1v-46.1c0-4.7-1-8.4-2.9-11c-2-2.6-4.7-3.9-8.3-3.9
			c-10.1,0-15.1,7.3-15.1,21.8l-4.6-25.1h6.5c0.7-5.3,2.5-9.2,5.4-11.8c2.9-2.6,7.2-3.9,13-3.9c8.3,0,14.7,2.5,19.3,7.6
			c4.5,5,6.8,12.1,6.8,21.3v51.1H531.6z"/>
		<path class="st0" d="M614.2,492.6c-13.6,0-24.1-3.5-31.5-10.6c-7.4-7-11.1-17.1-11.1-30.3c0-12.8,3.1-22.8,9.4-29.9
			c6.3-7.1,15.2-10.7,26.6-10.7c11.2,0,19.9,3.3,26,9.8c6.1,6.6,9.2,16.1,9.2,28.7c0,3.6-0.1,6.9-0.4,10.1h-57.6v-13.9h38.4
			c0-5.3-1.3-9.3-4-12.1c-2.7-2.8-6.5-4.2-11.3-4.2c-5.2,0-9.3,1.9-12.2,5.6c-2.9,3.7-4.3,9-4.3,15.9c0,7.4,2.1,13,6.4,16.9
			c4.3,3.9,10.4,5.8,18.3,5.8c3.6,0,7.1-0.2,10.5-0.6c3.5-0.4,7-0.9,10.6-1.5l1.9,19c-5,0.9-9.6,1.5-13.8,1.7
			C621.1,492.4,617.4,492.6,614.2,492.6z"/>
		<path class="st0" d="M655.6,431v-18.4h73.6V431H655.6z M674.4,452.8v-63.9h20v63.9H674.4z M712.8,492.6c-13.5,0-23.3-2.7-29.3-8.1
			c-6-5.4-9-14.1-9-26.1v-10.2h20v8.3c0,6,1.5,10.3,4.6,13c3.1,2.7,8.2,4.1,15.2,4.1c2.3,0,4.7-0.1,7.3-0.4c2.6-0.3,5.5-0.6,8.8-1.1
			l1.8,18.7c-3.3,0.6-6.4,1-9.5,1.3C719.6,492.4,716.3,492.6,712.8,492.6z"/>
	</g>
	<g>
		<g>
			<path class="st0" d="M285.5,585.6c-4.2,0-7.5-1.3-9.8-4c-2.3-2.6-3.5-6.4-3.5-11.2c0-4.8,1.2-8.6,3.5-11.2c2.3-2.6,5.6-4,9.8-4
				s7.5,1.3,9.8,4s3.5,6.4,3.5,11.2c0,4.8-1.2,8.5-3.5,11.2C293,584.3,289.7,585.6,285.5,585.6z M285.5,578.5c1.7,0,3-0.7,3.9-2.1
				c0.9-1.4,1.4-3.4,1.4-6c0-2.6-0.5-4.6-1.4-6c-0.9-1.4-2.2-2.1-4-2.1c-1.7,0-3,0.7-3.9,2.1c-0.9,1.4-1.4,3.4-1.4,6
				c0,2.6,0.5,4.6,1.4,6S283.8,578.5,285.5,578.5z"/>
			<path class="st0" d="M315.7,585.6c-3.6,0-6.4-1.3-8.4-3.9c-2-2.6-3-6.3-3-11.2c0-4.8,1-8.6,3-11.2c2-2.6,4.8-4,8.5-4
				c2.1,0,3.8,0.5,4.9,1.4c1.1,1,1.8,2.4,2.2,4.4h2.4l-1.7,9.3c0-2.8-0.5-4.9-1.4-6.2c-0.9-1.3-2.4-2-4.3-2c-1.8,0-3.2,0.7-4.2,2.1
				c-1,1.4-1.5,3.4-1.5,6c0,2.7,0.5,4.7,1.4,6.1c1,1.4,2.4,2,4.3,2c2.1,0,3.6-0.6,4.4-1.9c0.8-1.3,1.3-3.3,1.3-6.2l2,9.3h-2.6
				c-0.3,1.9-1.1,3.4-2.3,4.4C319.3,585.1,317.7,585.6,315.7,585.6z M324.5,585.3l-1.1-5.8v-35.8h7.5v41.3L324.5,585.3z"/>
			<path class="st0" d="M371.9,585.1v-7.7c5.7-3,10-6.2,12.9-9.5s4.2-6.7,4.2-10.2c0-1.8-0.4-3.1-1.3-4c-0.9-0.9-2.2-1.3-4-1.3
				c-1.6,0-3.2,0.4-4.9,1.3c-1.7,0.9-3.2,2-4.4,3.4l-4.2-4.9c1.4-2,3.3-3.6,5.8-4.9c2.5-1.2,5.1-1.8,7.8-1.8c4.3,0,7.5,1,9.6,2.9
				c2.1,2,3.2,4.9,3.2,8.9c0,3.7-1.1,7.2-3.3,10.5c-2.2,3.3-5.5,6.6-9.9,9.6v7.7H371.9z M373.5,585.1v-6.7h24.7v6.7H373.5z"/>
			<path class="st0" d="M417.7,585.6c-9.2,0-13.8-6.6-13.8-19.8c0-13.6,4.6-20.4,13.8-20.4c9.2,0,13.8,6.8,13.8,20.4
				C431.5,579,426.9,585.6,417.7,585.6z M417.7,579c4.2,0,6.3-4.4,6.3-13.2c0-9.2-2.1-13.8-6.3-13.8c-4.3,0-6.4,4.6-6.4,13.8
				C411.3,574.6,413.5,579,417.7,579z"/>
			<path class="st0" d="M450.8,585.6c-9.2,0-13.8-6.6-13.8-19.8c0-13.6,4.6-20.4,13.8-20.4c9.2,0,13.8,6.8,13.8,20.4
				C464.6,579,460,585.6,450.8,585.6z M450.8,579c4.2,0,6.3-4.4,6.3-13.2c0-9.2-2.1-13.8-6.3-13.8c-4.3,0-6.4,4.6-6.4,13.8
				C444.4,574.6,446.5,579,450.8,579z"/>
			<path class="st0" d="M470.3,571.7v-2.6c0-7.4,2-13.1,5.9-16.9c3.9-3.9,10-6,18-6.4l0.6,6.9c-11.2,0.5-16.8,5.1-16.8,14v2.3
				L470.3,571.7z M484.1,585.6c-4.3,0-7.7-1.2-10.1-3.7c-2.4-2.5-3.6-5.9-3.6-10.2l6.2-5h2.3c0.5-2,1.5-3.6,3-4.7
				c1.5-1.1,3.3-1.7,5.4-1.7c3.4,0,6,1.1,7.9,3.2c1.9,2.2,2.8,5.2,2.8,9.2c0,4.1-1.2,7.2-3.6,9.5
				C491.9,584.5,488.5,585.6,484.1,585.6z M484.1,578.7c1.9,0,3.4-0.5,4.5-1.6c1.1-1,1.6-2.5,1.6-4.4c0-1.8-0.5-3.1-1.5-4.1
				c-1-1-2.5-1.4-4.4-1.4c-2,0-3.5,0.5-4.6,1.5s-1.6,2.5-1.6,4.4c0,1.8,0.5,3.1,1.6,4.1C480.7,578.2,482.2,578.7,484.1,578.7z"/>
		</g>
	</g>
	<path class="st0" d="M441.4,316.8c12.4-18.2,14.8-43.1,15.6-53c1.1-12.7,27.4-24.9,27.4-24.9s-9.4-16-32.1-18.5
		c-17.1-22-34.7-12.9-34.7-12.9s13.1,16.9,5.1,46.3c-8,29.4-29.2,26.5-29.2,26.5c-7.6-0.2-8-18.9-8-18.9c9.9-17.7,0.2-31,0.2-31
		c37.9-27.6,11.6-63.9,3.8-68.1c-0.2-3.6,0.7-8.6,0.4-15.7c-0.3-7.1-5.6-18.3-5.6-18.3s3,0.4,6.8-6.5c3.8-6.9-3.3-12.2-3.3-12.2
		s6.7-15.8-6-26.5c-9.6-8.1-20.6-1.8-25.4,1.8c-1.8,1.4-2.7,3.5-3.6,5.6c-1.1,2.7-0.4,11.3-0.4,11.3s-3.3,5.8-3.3,7.3
		s3.3,1.8,3.3,1.8s0.9,6.2,1.1,9.1c0.2,2.9,8.5,2.9,8.5,2.9v7.8c-7.8-2.4-23.3-5.7-23.3-5.7l5.6-46.2l9.1-12v5.6h6.4l0.1-6l114,0.7
		l-11.1-11.4l-102.4-1.1l0.1-5.8h-7.1l-0.1,5.9l-17.9,1.9l-3.1,16.7c-3.3,10.9-11.5,48.4-12,55.3c-0.5,6.9,26.1,19.1,26.1,19.1
		c-6.7,5.2-12.6,9.9-14.3,12c-0.9,1.3,1.8,7,1.8,7c-27.6,25-6.2,58.1,2.2,61.9c2.6,5.4,3.6,8,3.6,15.8c-13.6,32.6-17.8,57.5-19,72.6
		h-67c-2.3-0.1-4.1-0.1-5.5-0.3c-2.5-0.2-4.6-0.7-6.4-1.5c-1.8-0.8-3.5-1.9-4.9-3.4c-2.1-2.1-3.5-5-4.3-8.6c-0.7-3.3-1-7.9-1-14
		v-81.5c0-18.9-17.8-32.4-17.8-32.4s17.8-8.9,17.8-31V62.7c0-6.1,0.3-10.8,1-14c0.8-3.6,2.2-6.5,4.3-8.6c1.4-1.5,3.1-2.6,4.9-3.4
		c1.8-0.8,3.9-1.3,6.4-1.5c2.3-0.2,5.4-0.3,9.4-0.3h255.1c3.9,0,7.1,0.1,9.4,0.3c2.5,0.2,4.6,0.7,6.4,1.5c1.8,0.8,3.5,1.9,4.9,3.4
		c2.1,2.1,3.5,5,4.3,8.6c0.7,3.2,1,7.9,1,14v81.5c0,22,17.8,31,17.8,31s-17.8,13.5-17.8,32.4V289c0,6.2-0.3,10.8-1,14
		c-0.8,3.6-2.2,6.5-4.3,8.6c-1.4,1.4-3.1,2.6-4.9,3.4c-1.8,0.8-3.9,1.3-6.4,1.5c-1.4,0.1-3.2,0.2-5.5,0.3L441.4,316.8z"/>
</g>
</svg>
